<?xml version="1.0" standalone="no"?> <!DOCTYPE svg PUBLIC "-//W3C//DTD SVG 1.0//EN" "http://www.w3.org/TR/2001/REC-SVG-20010904/DTD/svg10.dtd" > <svg xmlns="http://www.w3.org/2000/svg" width="100%" height="100%">
<defs >
<font id="itcs" horiz-adv-x="488" ><font-face
    font-family="Eras LT Demi"
    units-per-em="1000"
    panose-1="2 0 7 3 5 0 0 9 0 4"
    ascent="909"
    descent="-250"
    alphabetic="0" />
<missing-glyph horiz-adv-x="316" />
<glyph unicode=" " glyph-name="space" horiz-adv-x="316" />
<glyph unicode="!" glyph-name="exclam" horiz-adv-x="316" d="M247 667Q237 549 231 432T217 196H89Q90 248 92 294T95 392T98 510T102 667H247ZM70 0L76 126H227L221 0H70Z" />
<glyph unicode="&quot;" glyph-name="quotedbl" horiz-adv-x="389" d="M237 490Q242 535 243 578T246 667H337Q332 622 331 579T328 490H237ZM60 490Q65 535 66 578T69 667H160Q155 622 154 579T151 490H60Z" />
<glyph unicode="#" glyph-name="numbersign" horiz-adv-x="633" d="M517 255H602L580 157H495L460 0H320L355 157H223L188 0H48L83 157H-2L20 255H105L141 412H55L77 510H163L198 667H338L303 510H434L470 667H610L574 510H659L637 412H552L517 255ZM412 412H281L245
255H377L412 412Z" />
<glyph unicode="$" glyph-name="dollar" horiz-adv-x="633" d="M249 -96Q252 -50 252 0Q217 0 183 9T115 31L109 155Q144 138 183 125T263 112Q299 112 327 130T355 189Q355 209 339 231T297 276T243 325T189 379T148 437T131 502Q131 539 144 567T178 616T228
649T287 667V762H415Q414 730 413 711T412 667Q437 665 461 660T510 648L518 530Q488 544 453 552T364 561Q337 561 317 543T297 502Q297 479 313 456T355 408T409 359T463 306T504 245T521 177Q521 144 510 117T479 69T433 32T377 9V-96H249Z" />
<glyph unicode="%" glyph-name="percent" horiz-adv-x="883" d="M228 0Q323 167 416 332T601 667H684Q589 500 496 335T314 0H228ZM703 350Q677 350 661 330T637 281T626 224T623 176Q623 159 625 139T635 99T657 68T693 55Q719 55 734 74T758 121T770 176T773
224Q773 242 771 263T762 304T740 337T703 350ZM708 417Q751 417 780 401T828 357T853 294T861 221Q861 187 855 147T830 71T778 12T690 -12Q647 -12 618 3T570 45T543 106T535 179Q535 221 543 263T572 339T625 395T708 417ZM220 612Q194 612 178 592T154 543T143
486T140 438Q140 421 142 401T152 361T174 330T210 317Q236 317 251 336T275 383T287 438T290 486Q290 504 288 525T279 566T257 599T220 612ZM225 679Q268 679 297 663T345 619T370 556T378 483Q378 449 372 409T347 333T295 274T207 250Q164 250 135 265T87 307T60
368T52 441Q52 483 60 525T89 601T142 657T225 679Z" />
<glyph unicode="&amp;" glyph-name="ampersand" horiz-adv-x="728" d="M446 138Q406 180 368 221T293 308Q275 297 258 286T226 260T203 227T194 187Q194 160 205 141T236 109T278 92T325 86Q397 86 446 138ZM726 0H567L512 57Q468 21 418 5T311 -12Q252 -12 206
3T127 44T78 105T61 182Q61 225 75 257T113 314T168 359T233 397Q215 425 201 455T186 520Q186 557 201 586T242 636T305 668T385 679Q421 679 457 674T528 659L532 550Q506 558 479 565T424 573Q406 573 389 568T359 554T337 529T329 495Q329 464 352 426T408
348T474 275T529 217Q540 243 543 270T548 324H669Q669 270 656 218T614 118L726 0Z" />
<glyph unicode="&apos;" glyph-name="quotesingle" horiz-adv-x="212" d="M60 490Q65 535 66 578T69 667H160Q155 622 154 579T151 490H60Z" />
<glyph unicode="(" glyph-name="parenleft" horiz-adv-x="351" d="M328 667Q287 534 266 400T245 128Q245 45 253 -36T282 -199H171Q148 -110 134 -21T119 161Q119 292 147 417T216 667H328Z" />
<glyph unicode=")" glyph-name="parenright" horiz-adv-x="351" d="M57 -199Q100 -75 119 54T139 315Q139 404 130 491T103 667H214Q236 573 250 479T265 288Q265 160 239 41T169 -199H57Z" />
<glyph unicode="*" glyph-name="asterisk" horiz-adv-x="568" d="M249 484L130 520L164 592L279 540L276 667H356L340 539L460 589L485 518L361 483L442 388L377 338L303 446L215 338L159 389L249 484Z" />
<glyph unicode="+" glyph-name="plus" horiz-adv-x="633" d="M46 186L51 312H258Q261 359 263 404T265 497H395Q390 450 388 405T384 312H591L586 186H379Q373 93 373 0H243Q248 47 249 93T253 186H46Z" />
<glyph unicode="," glyph-name="comma" horiz-adv-x="316" d="M118 -119H22L98 97H249L118 -119Z" />
<glyph unicode="-" glyph-name="hyphen" horiz-adv-x="261" d="M13 205L17 303H275L270 205H13Z" />
<glyph unicode="." glyph-name="period" horiz-adv-x="316" d="M89 0L94 133H234L227 0H89Z" />
<glyph unicode="/" glyph-name="slash" horiz-adv-x="412" d="M-23 0Q71 168 158 333T330 667H473Q378 499 290 334T115 0H-23Z" />
<glyph unicode="0" glyph-name="zero" horiz-adv-x="633" d="M344 573Q314 573 293 558T256 518T232 462T217 398T211 336T209 285Q209 255 213 222T230 160T264 113T321 94Q351 94 372 109T409 147T434 201T449 263T456 324T458 375Q458 403 454 437T438 502T404
552T344 573ZM351 679Q420 679 467 654T543 585T585 486T598 370Q598 301 585 233T539 110T452 22T315 -12Q249 -12 203 12T127 77T83 171T69 284Q69 372 85 444T136 569T224 650T351 679Z" />
<glyph unicode="1" glyph-name="one" horiz-adv-x="633" d="M178 476L183 604Q208 619 233 633T281 667H429Q426 637 423 591T416 489T409 368T403 240T399 114T397 0H242Q252 134 258 267T269 536L178 476Z" />
<glyph unicode="2" glyph-name="two" horiz-adv-x="633" d="M65 0L70 102Q146 175 207 236T313 347T381 434T405 498Q405 522 393 536T361 559T321 570T280 573Q235 573 191 565T103 545L121 658Q229 679 338 679Q374 679 416 672T493 648T551 601T575 525Q575
493 561 458T510 374T412 259T256 98Q310 98 352 98Q395 98 430 99T494 101T550 105L542 0H65Z" />
<glyph unicode="3" glyph-name="three" horiz-adv-x="633" d="M70 131Q115 114 161 104T256 94Q282 94 309 100T359 119T396 154T411 206Q411 238 395 257T354 285T301 298T248 301Q229 301 211 300T174 296L182 404Q189 402 196 402T216 400T245 399Q262 399
288 399Q303 399 322 405T359 424T389 453T401 494Q401 522 389 539T358 566T316 578T271 581Q232 581 194 575T117 559L138 665Q181 671 224 675T310 679Q352 679 397 674T479 651T541 602T565 516Q565 482 554 454T524 405T479 368T423 345V343Q486 337 526 299T566
192Q566 166 555 131T512 64T424 10T278 -12Q227 -12 178 -5T79 14L70 131Z" />
<glyph unicode="4" glyph-name="four" horiz-adv-x="633" d="M358 297L369 564L367 562L177 297H358ZM592 303L590 199H480Q478 157 477 112T476 0H328L340 199H62L67 318Q133 403 196 489T319 667H503Q496 576 492 486T485 303H592Z" />
<glyph unicode="5" glyph-name="five" horiz-adv-x="633" d="M261 397Q278 399 295 400T330 402Q375 402 418 394T496 364T552 308T573 221Q573 175 554 133T495 59T398 7T263 -12Q178 -12 97 9L87 120Q126 109 165 102T247 94Q274 94 302 101T354 123T392 161T407
217Q407 249 392 269T355 299T304 313T251 317Q215 317 179 313T106 304L137 667H562L557 556Q514 559 476 560T402 561H277L261 397Z" />
<glyph unicode="6" glyph-name="six" horiz-adv-x="633" d="M471 667Q447 641 419 607T363 534T307 453T260 370T227 288T214 213Q214 160 243 127T327 94Q379 94 411 127T443 212Q443 257 421 286T350 315Q331 315 314 313T277 306L335 406Q351 409 366 411T398
413Q486 413 537 363T588 224Q588 214 586 193T574 146T548 92T500 41T427 3T321 -12Q271 -12 226 0T146 39T90 105T69 200Q69 236 77 278T110 375T177 501T291 667H471Z" />
<glyph unicode="7" glyph-name="seven" horiz-adv-x="633" d="M568 667L563 555Q494 416 426 279T295 0H113Q186 141 257 280T398 561H234Q223 561 212 561T184 560T145 558T92 555L97 667H568Z" />
<glyph unicode="8" glyph-name="eight" horiz-adv-x="633" d="M342 581Q294 581 263 553T231 475Q231 430 261 408T333 385Q381 385 413 413T445 490Q445 536 415 558T342 581ZM331 293Q306 293 283 287T243 268T215 235T204 187Q204 161 214 142T241 111T279
92T325 86Q350 86 372 94T411 117T437 153T447 200Q447 225 438 243T412 272T374 288T331 293ZM346 679Q388 679 429 670T502 641T555 588T575 506Q575 443 545 405T460 344V342Q515 331 551 296T587 200Q587 140 563 100T500 35T412 -1T311 -12Q267 -12 223 -3T143
28T86 85T64 172Q64 205 74 233T104 282T148 318T203 341V343Q156 360 129 396T101 488Q101 539 122 575T179 635T258 668T346 679Z" />
<glyph unicode="9" glyph-name="nine" horiz-adv-x="633" d="M189 0Q210 27 237 62T293 136T349 218T398 301T433 383T446 458Q446 508 419 540T338 573Q284 573 249 543T214 457Q214 405 246 381T326 357Q342 357 357 359T387 367L322 264Q309 262 297 261T270
259Q228 259 192 271T128 306T85 363T69 441Q69 501 91 545T151 620T239 664T344 679Q400 679 440 668T508 637T552 595T577 548T588 503T591 466Q591 407 569 344T514 221T443 104T372 0H189Z" />
<glyph unicode=":" glyph-name="colon" horiz-adv-x="316" d="M89 0L94 133H234L227 0H89ZM112 364L117 497H257L250 364H112Z" />
<glyph unicode=";" glyph-name="semicolon" horiz-adv-x="316" d="M112 364L117 497H257L250 364H112ZM118 -119H22L98 97H249L118 -119Z" />
<glyph unicode="&lt;" glyph-name="less" horiz-adv-x="633" d="M577 -22Q443 31 312 81T46 181L52 319Q190 367 326 417T601 520L595 380L160 250V248L583 121L577 -22Z" />
<glyph unicode="=" glyph-name="equal" horiz-adv-x="633" d="M46 72L51 198H591L586 72H46ZM56 300L61 426H601L596 300H56Z" />
<glyph unicode="&gt;" glyph-name="greater" horiz-adv-x="633" d="M64 520Q198 467 329 417T595 317L589 179Q451 131 315 81T40 -22L46 117L481 248V250L58 377L64 520Z" />
<glyph unicode="?" glyph-name="question" horiz-adv-x="494" d="M149 0L155 126H306L300 0H149ZM66 663Q113 671 159 675T254 679Q290 679 331 673T408 649T467 602T490 526Q490 495 477 466T443 411T400 362T356 317Q337 297 327 283T311 253T303 218T297 172H168Q170
219 172 246T181 293T205 334T252 387Q262 397 275 411T301 440T321 471T330 503Q330 526 317 540T286 561T245 571T205 573Q164 573 124 566T45 548L66 663Z" />
<glyph unicode="@" glyph-name="at" horiz-adv-x="824" d="M436 165Q421 163 398 161T360 158Q294 158 257 185T220 269Q220 307 241 329T293 365T361 385T429 399T481 415T502 443Q502 456 495 463T478 475T455 480T431 482Q391 482 352 473T274 448L290 527Q331
537 373 543T460 549Q486 549 513 545T563 530T600 500T615 448Q615 436 614 411T611 356T608 293T606 234Q622 234 640 241T672 264T696 308T706 376Q706 420 690 462T642 538T560 591T444 612Q374 612 321 588T231 524T177 432T158 323Q158 267 176 218T228 133T310
76T420 55Q487 55 538 75T621 130H736Q714 95 681 69T606 24T516 -3T417 -12Q330 -12 263 13T151 82T82 188T58 323Q58 396 82 461T155 574T277 651T447 679Q536 679 603 655T716 590T783 496T806 386Q806 319 784 277T729 210T662 176T603 167H489Q492 214 495
260T498 353Q486 341 461 335T410 321T365 301T346 263Q346 241 363 233T397 225Q413 225 429 228T461 236L436 165Z" />
<glyph unicode="A" glyph-name="A" horiz-adv-x="695" d="M465 339L388 562L279 339H465ZM235 233Q206 177 179 119T124 0H-41Q50 165 136 331T307 667H488Q545 499 606 333T731 0H571Q554 60 534 118T492 233H235Z" />
<glyph unicode="B" glyph-name="B" horiz-adv-x="651" d="M232 391H349Q382 391 405 399T444 420T465 451T472 489Q472 516 462 532T436 556T399 567T356 569H239L232 391ZM228 293L220 98H339Q379 98 406 106T449 127T473 160T480 202Q480 232 469 249T440 277T399
290T351 293H228ZM448 667Q477 667 507 660T561 636T600 588T615 513Q615 449 582 406T492 347V345Q552 334 587 293T623 186Q623 93 556 47T372 0H71Q75 37 79 108T88 271T95 464T98 667H448Z" />
<glyph unicode="C" glyph-name="C" horiz-adv-x="649" d="M631 545Q593 556 554 564T473 573Q416 573 368 556T284 505T229 425T209 320Q209 266 226 224T274 153T349 109T446 94Q491 94 534 102T620 123L602 6Q558 -2 514 -7T422 -12Q348 -12 282 8T167 68T88
170T58 312Q58 402 87 470T169 585T294 655T453 679Q496 679 539 674T625 660L631 545Z" />
<glyph unicode="D" glyph-name="D" horiz-adv-x="752" d="M223 106H330Q405 106 455 128T535 187T578 270T591 365Q591 399 583 434T554 497T499 543T412 561H242L223 106ZM428 667Q492 667 547 651T644 598T710 504T734 363Q734 285 712 219T644 104T527 28T359
0H71Q75 39 80 110T89 272T97 465T101 667H428Z" />
<glyph unicode="E" glyph-name="E" horiz-adv-x="616" d="M589 667L584 557Q541 559 499 560T413 561H250L242 387H402Q431 387 462 388T535 391L529 289H236L228 106H424Q434 106 445 106Q456 106 472 106T510 108T565 112L559 0H71Q76 34 80 87T87 203T93 334T98
464T101 580T102 667H589Z" />
<glyph unicode="F" glyph-name="F" horiz-adv-x="574" d="M563 667L558 558Q471 561 383 561H246L239 387H511L507 286Q495 288 457 288T358 289H234Q232 237 231 200T230 130T229 68T228 0H71Q74 23 77 65T83 161T89 279T94 409T98 542T99 667H563Z" />
<glyph unicode="G" glyph-name="G" horiz-adv-x="759" d="M723 381Q720 341 718 301T713 216T708 123T704 18Q640 5 576 -3T444 -12Q250 -12 154 72T58 312Q58 379 81 444T153 562T281 646T472 679Q529 679 584 672T696 653L702 535Q651 552 599 562T493 573Q431
573 379 556T290 504T231 421T209 307Q209 253 225 213T272 146T344 107T438 94Q471 94 503 98T568 111L576 283H454L459 381H723Z" />
<glyph unicode="H" glyph-name="H" horiz-adv-x="778" d="M574 403Q574 410 575 438T578 505T580 587T581 667H737Q726 499 718 334T710 0H552Q555 31 557 63T562 131T565 208T568 297H236Q232 219 231 147T227 0H71Q76 78 81 154T91 311T97 479T100 667H256Q254
642 253 616T249 559T245 490T241 403H574Z" />
<glyph unicode="I" glyph-name="I" horiz-adv-x="296" d="M71 0Q76 76 81 152T89 309T95 478T98 667H255Q250 596 246 524T238 371T233 200T229 0H71Z" />
<glyph unicode="J" glyph-name="J" horiz-adv-x="448" d="M-25 125Q10 113 46 104T128 94Q167 94 195 111T236 172Q241 191 245 231T251 320T255 423T258 525T259 612Q259 650 259 667H413Q405 553 399 436T389 184Q387 137 374 101T332 40T261 1T155 -12Q112
-12 69 -5T-16 11L-25 125Z" />
<glyph unicode="K" glyph-name="K" horiz-adv-x="666" d="M408 357Q473 264 540 177T677 0H494Q437 91 375 178T250 353Q313 431 376 508T497 667H671L408 357ZM71 0Q78 78 83 168T93 349T99 521T102 667H258Q253 590 249 513T240 355T233 185T228 0H71Z" />
<glyph unicode="L" glyph-name="L" horiz-adv-x="531" d="M538 0H71Q88 168 95 333T105 667H261Q260 652 258 614T253 524T247 413T241 296T236 188T233 106H354Q402 106 449 106T545 109L538 0Z" />
<glyph unicode="M" glyph-name="M" horiz-adv-x="880" d="M508 0H373L278 341Q265 389 250 439T224 527H222Q211 396 203 265T189 0H61Q67 51 73 117T86 254T97 394T107 520T114 616T118 667H315Q323 616 338 567T370 469Q394 396 413 323T452 180H454Q480 250
507 323T565 468Q586 517 606 566T641 667H842Q839 596 837 525T832 375T829 204T828 0H695Q700 118 704 236T709 473V527H707L508 0Z" />
<glyph unicode="N" glyph-name="N" horiz-adv-x="792" d="M230 496H226Q224 446 222 387T218 263T214 133T211 0H71Q85 168 92 333T103 667H286Q359 537 438 414T592 162H594Q599 280 604 410T612 667H750Q736 503 728 336T717 0H540L230 496Z" />
<glyph unicode="O" glyph-name="O" horiz-adv-x="835" d="M448 573Q392 573 348 554T272 501T225 421T209 320Q209 269 225 227T270 156T342 110T435 94Q490 94 533 113T605 165T650 245T665 344Q665 394 651 436T608 508T540 556T448 573ZM453 679Q530 679 596
658T711 594T788 490T816 347Q816 258 787 191T707 79T584 11T428 -12Q352 -12 285 8T168 68T88 170T58 312Q58 402 87 470T169 585T294 655T453 679Z" />
<glyph unicode="P" glyph-name="P" horiz-adv-x="587" d="M250 378Q264 376 278 375T306 373Q375 373 410 402T445 488Q445 536 419 552T340 569Q313 569 287 568T233 564Q232 548 231 512T227 427T223 321T220 207T217 96T216 0H71Q75 29 78 78T84 187T90 314T95
445T98 567T99 667H416Q465 667 498 650T551 606T579 549T588 492Q588 439 569 399T517 331T440 289T347 275Q311 275 274 281L250 378Z" />
<glyph unicode="Q" glyph-name="Q" horiz-adv-x="835" d="M448 573Q392 573 348 554T272 501T225 421T209 320Q209 269 225 227T270 156T342 110T435 94Q490 94 533 113T605 165T650 245T665 344Q665 394 651 436T608 508T540 556T448 573ZM806 16Q718 3 627 -4T428
-12Q352 -12 285 8T168 68T88 170T58 312Q58 402 87 470T169 585T294 655T453 679Q530 679 596 658T711 594T788 490T816 347Q815 274 783 210T691 102V100Q756 107 827 129L806 16Z" />
<glyph unicode="R" glyph-name="R" horiz-adv-x="630" d="M600 0H439Q403 96 358 186T268 369Q283 367 298 365T328 363Q356 363 383 369T430 390T463 427T476 482Q476 511 464 528T433 555T391 566T345 569Q318 569 292 568T238 564Q237 542 236 499T233 402T229
287T226 172T223 71T222 0H71Q88 167 94 333T101 667H402Q445 667 484 659T554 631T601 580T619 501Q619 457 605 424T567 367T509 328T435 305L600 0Z" />
<glyph unicode="S" glyph-name="S" horiz-adv-x="525" d="M478 544Q445 556 410 564T339 573Q291 573 261 552T230 498Q230 472 249 449T297 402T359 354T421 301T469 240T488 168Q488 140 477 109T439 50T366 6T251 -12Q203 -12 157 -5T63 14L52 137Q94 118 138
106T228 94Q246 94 265 97T300 110T326 133T337 169Q337 195 318 219T270 267T208 316T146 371T98 434T79 509Q79 553 98 585T150 638T224 669T310 679Q350 679 389 674T468 661L478 544Z" />
<glyph unicode="T" glyph-name="T" horiz-adv-x="555" d="M589 667L585 556Q538 559 490 560T377 561Q373 498 370 433T363 299T358 156T356 0H200Q211 126 217 271T229 561Q174 561 141 561T87 560T52 558T20 557L24 667H589Z" />
<glyph unicode="U" glyph-name="U" horiz-adv-x="752" d="M721 667Q720 656 719 630T715 567T709 487T704 399T700 312T697 234Q696 214 693 188T679 135T647 82T590 34T502 1T375 -12Q294 -12 237 5T143 50T91 116T74 192Q74 261 84 382T97 667H249Q247 641 245
607T240 533T235 454T230 376T227 307T225 254Q225 173 262 134T382 94Q428 94 458 107T507 144T535 202T547 278Q554 381 560 476T567 667H721Z" />
<glyph unicode="V" glyph-name="V" horiz-adv-x="695" d="M241 0Q187 169 127 334T8 667H164Q183 596 205 529T251 395T296 261T337 124H339Q369 193 401 260T467 394T532 530T595 667H753Q665 500 581 335T416 0H241Z" />
<glyph unicode="W" glyph-name="W" horiz-adv-x="1073" d="M25 667H177Q223 524 271 384T371 103Q400 161 427 219T480 337Q453 421 424 503T363 667H509L558 493H560L635 667H771L619 345Q639 285 659 226T702 107Q769 247 833 386T960 667H1111L785 0H605Q576
100 542 194Q519 146 497 98T454 0H273L25 667Z" />
<glyph unicode="X" glyph-name="X" horiz-adv-x="628" d="M498 667H660Q600 585 538 506T417 343Q470 255 525 170T637 0H463Q429 63 390 123T316 246L141 0H-25Q111 172 242 351Q194 432 142 509T39 667H212L344 447L498 667Z" />
<glyph unicode="Y" glyph-name="Y" horiz-adv-x="584" d="M361 0H208Q215 70 220 140T227 280L8 667H173L309 396L475 667H639L372 270L361 0Z" />
<glyph unicode="Z" glyph-name="Z" horiz-adv-x="619" d="M608 667L604 559L226 106H302Q371 106 440 106T579 112L574 0H38L43 111Q140 223 234 335T419 561H333Q270 561 208 561T82 556L85 667H608Z" />
<glyph unicode="[" glyph-name="bracketleft" horiz-adv-x="351" d="M300 -199H92L141 667H350L347 620H262L218 -152H303L300 -199Z" />
<glyph unicode="\" glyph-name="backslash" horiz-adv-x="316" d="M275 0Q194 168 112 333T-56 667H81Q162 499 244 334T412 0H275Z" />
<glyph unicode="]" glyph-name="bracketright" horiz-adv-x="351" d="M72 667H281L231 -199H23L26 -152H110L154 620H70L72 667Z" />
<glyph unicode="^" glyph-name="asciicircum" horiz-adv-x="633" d="M196 292H45Q97 386 146 479T244 667H422Q461 573 502 480T587 292H438L330 580L196 292Z" />
<glyph unicode="_" glyph-name="underscore" horiz-adv-x="500" d="M0 -125V-75H500V-125H0Z" />
<glyph unicode="`" glyph-name="grave" horiz-adv-x="339" d="M162 570L67 698H222L272 570H162Z" />
<glyph unicode="a" glyph-name="a" horiz-adv-x="568" d="M309 -3Q264 -12 217 -12Q157 -12 122 3T68 41T44 88T39 129Q39 179 65 209T130 258T215 287T300 307T365 332T391 374Q391 392 382 403T360 419T330 427T300 429Q249 429 201 417T105 387L120 480Q174
493 227 501T336 509Q369 509 403 504T466 485T512 446T530 379Q530 352 528 311T522 219T516 113T513 0H374Q376 16 377 35T381 82T385 152T391 257Q378 246 357 238T311 223T262 209T217 190T185 164T172 127Q172 109 179 98T199 80T226 71T256 68Q276 68 295
72T334 83L309 -3Z" />
<glyph unicode="b" glyph-name="b" horiz-adv-x="621" d="M328 411Q301 411 274 405T221 391Q216 353 214 313T211 224Q211 195 221 170T248 126T288 97T337 86Q371 86 395 102T434 142T457 197T464 257Q464 290 456 318T432 367T390 399T328 411ZM198 0H65Q70
78 75 154T84 311T90 479T95 667H239L225 493Q258 500 291 504T357 509Q477 509 540 448T603 269Q603 214 589 163T545 73T471 11T365 -12Q311 -12 269 11T200 79H198V0Z" />
<glyph unicode="c" glyph-name="c" horiz-adv-x="489" d="M437 5Q367 -12 299 -12Q179 -12 115 52T51 236Q51 246 52 270T60 324T84 387T129 447T204 491T317 509Q394 509 463 490L471 382Q439 393 407 399T342 406Q265 406 228 360T190 240Q190 171 225 131T332
91Q364 91 394 97T454 114L437 5Z" />
<glyph unicode="d" glyph-name="d" horiz-adv-x="635" d="M449 400Q413 411 380 411Q332 411 297 397T237 357T202 297T190 222Q190 165 219 126T310 86Q338 86 359 97T397 126T422 168T437 217Q445 261 446 308T449 400ZM444 79H442Q408 34 366 11T262 -12Q213
-12 174 5T108 53T66 125T51 214Q51 277 70 331T128 424T223 486T355 509Q380 509 404 507T454 500Q455 517 456 533T457 568T458 610Q458 634 458 667H600Q597 638 594 591T588 487T581 365T576 236T572 111T570 0H439L444 79Z" />
<glyph unicode="e" glyph-name="e" horiz-adv-x="561" d="M421 308Q421 366 398 396T318 426Q265 426 233 392T194 308H421ZM190 241V225Q190 155 232 118T343 80Q386 80 427 89T509 112L491 7Q451 -2 411 -7T329 -12Q265 -12 220 1T143 35T94 83T66 137T54 189T51
231Q51 254 54 283T68 343T98 404T147 457T219 494T321 509Q372 509 414 496T488 457T536 392T554 299Q554 283 552 268T548 241H190Z" />
<glyph unicode="f" glyph-name="f" horiz-adv-x="352" d="M45 399L50 497H117V558Q117 603 133 629T173 669T223 687T270 691Q333 691 391 675L396 580Q376 588 354 593T310 599Q284 599 270 591T249 568T241 536T240 497H364L359 399H241L227 0H85Q93 100 97
198T106 399H45Z" />
<glyph unicode="g" glyph-name="g" horiz-adv-x="639" d="M457 403Q437 407 418 409T378 411Q314 411 277 389T221 337T196 275T190 223Q190 164 220 128T312 92Q340 92 363 103T402 132T429 175T445 225Q452 268 453 312T457 403ZM100 -100Q148 -117 195 -128T293
-139Q350 -139 379 -120T422 -71T438 -1T443 81H441Q412 38 366 16T266 -6Q216 -6 176 9T108 53T66 122T51 212Q51 234 55 264T72 328T107 393T167 451T257 493T384 509Q438 509 491 502T599 485Q592 405 584 273T573 -33Q572 -92 554 -131T504 -194T428 -227T329
-237Q272 -237 217 -230T107 -209L100 -100Z" />
<glyph unicode="h" glyph-name="h" horiz-adv-x="644" d="M238 667Q233 603 229 540T222 415L224 413Q256 469 305 489T420 509Q460 509 494 501T553 474T592 425T606 351Q606 328 604 292T599 209T594 110T592 0H444Q454 72 460 145T467 290Q467 344 442 370T361
397Q302 397 269 359T225 267Q219 237 216 198T212 121T209 50T208 0H65Q92 333 95 667H238Z" />
<glyph unicode="i" glyph-name="i" horiz-adv-x="272" d="M91 581L93 675H237L233 581H91ZM233 497Q228 441 225 385T219 269T216 142T214 0H65Q77 125 82 248T88 497H233Z" />
<glyph unicode="j" glyph-name="j" horiz-adv-x="312" d="M126 581L128 675H272L268 581H126ZM265 497Q263 456 261 404T256 285T250 133T245 -58Q244 -100 236 -133T209 -189T155 -224T66 -237Q29 -237 -8 -233T-81 -222L-91 -115Q-69 -122 -46 -126T10 -131Q39
-131 57 -121T85 -94T101 -53T108 0Q109 19 111 56T114 139T117 236T120 337T122 428T123 497H265Z" />
<glyph unicode="k" glyph-name="k" horiz-adv-x="550" d="M363 277Q410 205 460 137T560 0H406Q364 73 316 140T222 278Q266 333 310 386T395 497H552L363 277ZM65 0Q79 168 84 333T92 667H233Q228 603 224 519T215 345T209 165T205 0H65Z" />
<glyph unicode="l" glyph-name="l" horiz-adv-x="272" d="M65 0Q70 77 75 153T84 310T92 479T97 667H241Q228 499 221 334T208 0H65Z" />
<glyph unicode="m" glyph-name="m" horiz-adv-x="896" d="M216 421L218 419Q243 464 285 486T380 509Q430 509 471 488T529 418Q557 467 600 488T698 509Q731 509 760 502T811 478T845 436T858 374Q858 363 856 328T850 241T844 128T840 0H701Q704 28 707 76T712
172T717 261T719 314Q719 352 703 374T645 397Q621 397 603 389T571 365T550 331T538 290Q534 267 531 226T527 141T524 58T523 0H383Q388 78 393 155T399 311Q399 347 384 372T327 397Q302 397 284 388T252 363T232 327T220 284Q215 258 213 217T209 133T207 54T206
0H65Q66 15 69 67T76 190T83 342T87 497H220L216 421Z" />
<glyph unicode="n" glyph-name="n" horiz-adv-x="644" d="M227 416H229Q261 468 310 488T420 509Q460 509 494 501T553 474T592 425T606 351Q606 328 604 292T599 209T594 110T592 0H444Q454 72 460 145T467 290Q467 344 442 370T361 397Q302 397 269 359T225
267Q219 237 216 198T212 121T209 50T208 0H65Q70 57 74 114T82 232T88 358T92 497H232L227 416Z" />
<glyph unicode="o" glyph-name="o" horiz-adv-x="618" d="M333 411Q294 411 267 397T223 357T198 300T190 233Q190 203 198 177T222 130T263 98T320 86Q357 86 384 100T428 139T453 195T461 260Q461 291 454 318T432 366T392 399T333 411ZM334 509Q393 509 442
493T526 444T580 365T600 257Q600 233 595 204T578 144T546 86T494 36T419 1T318 -12Q242 -12 191 11T109 71T65 151T51 236Q51 300 71 350T129 436T219 490T334 509Z" />
<glyph unicode="p" glyph-name="p" horiz-adv-x="626" d="M333 411Q306 411 279 405T226 391Q221 353 219 313T216 224Q216 195 226 170T253 126T293 97T342 86Q376 86 400 102T439 142T462 197T469 257Q469 290 461 318T437 367T395 399T333 411ZM201 -224H58Q72
-47 80 128T90 481Q150 492 210 500T340 509Q428 509 480 483T561 419T599 336T608 254Q608 203 594 155T553 70T483 11T384 -12Q333 -12 288 8T211 68H209L201 -224Z" />
<glyph unicode="q" glyph-name="q" horiz-adv-x="629" d="M443 401Q410 411 372 411Q328 411 294 397T237 357T202 295T190 217Q190 192 196 169T216 127T250 97T298 86Q326 86 349 97T389 126T416 169T431 220Q439 265 440 309T443 401ZM417 -224L434 77H432Q403
35 359 12T260 -12Q210 -12 172 6T106 55T65 128T51 217Q51 257 63 307T110 403T209 478T374 509Q438 509 489 503T591 489Q584 407 579 328T570 163T564 -17T560 -224H417Z" />
<glyph unicode="r" glyph-name="r" horiz-adv-x="389" d="M214 430H216Q239 467 271 488T350 509Q370 509 393 504L397 387Q383 392 370 394T343 397Q289 397 258 365T216 280Q212 260 210 232T206 173T205 113T204 62V0H65Q68 53 71 106T78 218T82 345T84 497H217L214
430Z" />
<glyph unicode="s" glyph-name="s" horiz-adv-x="446" d="M45 117Q80 103 115 92T188 80Q200 80 213 82T237 90T256 106T264 132Q264 149 250 166T215 200T170 235T124 274T89 319T75 372Q75 433 120 471T264 509Q301 509 338 505T412 493L418 391Q393 402 366
409T309 417Q294 417 279 416T252 409T233 395T226 369Q226 353 240 338T275 305T320 269T366 228T401 180T415 123Q415 84 396 59T347 17T283 -5T216 -12Q175 -12 135 -6T56 9L45 117Z" />
<glyph unicode="t" glyph-name="t" horiz-adv-x="373" d="M247 399Q246 383 245 350T241 282T238 215T236 170Q236 138 245 116T288 94Q318 94 334 97T368 106L350 3Q294 -12 238 -12Q203 -12 177 -6T133 16T106 55T97 117Q97 130 98 154T100 207T104 268T108
327T111 374T113 399H43L47 497H121L126 588L255 616L251 497H376L372 399H247Z" />
<glyph unicode="u" glyph-name="u" horiz-adv-x="629" d="M432 78H430Q401 27 354 8T247 -12Q209 -12 176 -4T118 22T79 70T64 141Q64 172 66 207T72 285T77 380T80 497H222Q220 482 217 442T211 357T206 269T203 205Q203 154 228 127T305 100Q361 100 392 132T433
217Q437 242 440 281T445 363T448 441T449 497H589Q579 372 573 249T564 0H432V78Z" />
<glyph unicode="v" glyph-name="v" horiz-adv-x="543" d="M276 130H278L420 497H565Q507 373 452 250T344 0H193Q152 126 108 249T19 497H162L276 130Z" />
<glyph unicode="w" glyph-name="w" horiz-adv-x="874" d="M620 138H622L761 497H892Q838 372 783 249T677 0H538L449 350H447L321 0H185Q145 126 103 249T15 497H148L260 138H262L389 497H526L620 138Z" />
<glyph unicode="x" glyph-name="x" horiz-adv-x="560" d="M201 264Q165 324 127 381T51 497H214Q234 455 256 416T300 335L407 497H558L386 266Q426 198 468 132T553 0H391Q368 49 341 95T288 190Q258 142 226 95T163 0H5L201 264Z" />
<glyph unicode="y" glyph-name="y" horiz-adv-x="543" d="M26 497H169Q181 447 196 399T226 302T254 207T278 111H280Q313 210 353 304T429 497H567L299 -110Q290 -131 277 -153T242 -194T187 -225T105 -237Q53 -237 3 -225L-11 -117Q10 -127 29 -133T84 -139Q109
-139 127 -127T159 -97T183 -56T202 -11L26 497Z" />
<glyph unicode="z" glyph-name="z" horiz-adv-x="486" d="M464 497L459 382L198 92H274Q325 92 366 93T447 97L440 0H42L45 109L310 405Q244 405 184 403T73 397L76 497H464Z" />
<glyph unicode="{" glyph-name="braceleft" horiz-adv-x="351" d="M47 271Q75 270 90 277T113 297T122 323T124 352Q124 371 125 392T129 439T132 498T134 578Q134 627 161 647T226 667H339L337 620H297Q281 620 270 603T259 556Q259 545 258 523T255 472T252
408T250 337Q250 309 240 291T218 261T193 244T177 235V233Q181 230 191 225T213 208T232 178T241 131Q241 94 236 40T231 -88Q231 -118 239 -135T263 -152H303L301 -199H188Q150 -199 127 -181T104 -126Q104 -109 105 -89T109 -41T112 23T114 110Q114 123 114
138T107 165T86 184T43 191L47 271Z" />
<glyph unicode="|" glyph-name="bar" horiz-adv-x="316" d="M106 750H238V-250H106V750Z" />
<glyph unicode="}" glyph-name="braceright" horiz-adv-x="351" d="M330 197Q302 198 287 191T264 171T255 144T253 116Q253 96 252 76T248 29T245 -30T243 -110Q243 -159 216 -179T151 -199H38L40 -152H80Q96 -152 107 -135T118 -88Q118 -77 119 -55T122 -4T125
60T127 131Q127 159 137 177T159 207T184 224T200 233V235Q196 238 186 243T164 260T145 290T136 337Q136 374 141 428T146 556Q146 586 138 603T114 620H74L76 667H189Q227 667 250 649T273 594Q273 577 272 557T268 509T265 444T263 358Q263 344 263 330T270
303T291 284T334 277L330 197Z" />
<glyph unicode="~" glyph-name="asciitilde" horiz-adv-x="633" d="M51 258Q60 274 72 290T103 319T146 340T208 348Q236 348 264 337T323 312Q353 298 383 287T444 276Q459 276 471 282T495 299T514 322T531 348L590 240Q581 224 569 208T538 179T495 158T433
150Q406 150 377 161T318 186Q287 200 257 211T196 222Q181 222 169 216T146 199T126 176T110 150L51 258Z" />
</font>
</defs>
</svg>
